<?xml version="1.0" standalone="no"?>
<!DOCTYPE svg PUBLIC "-//W3C//DTD SVG 20010904//EN"
 "http://www.w3.org/TR/2001/REC-SVG-20010904/DTD/svg10.dtd">
<svg version="1.0" xmlns="http://www.w3.org/2000/svg"
 width="828.000000pt" height="824.000000pt" viewBox="0 0 828.000000 824.000000"
 preserveAspectRatio="xMidYMid meet">
<metadata>
Created by potrace 1.16, written by Peter Selinger 2001-2019
</metadata>
<g transform="translate(0.000000,824.000000) scale(0.100000,-0.100000)"
fill="#BA4C34" stroke="none">
<path d="M2 4123 l-2 -4123 4140 0 4140 0 -2 4123 -3 4122 -2 -4118 -3 -4117
-4128 2 -4127 3 -5 4115 -5 4115 -3 -4122z"/>
<path d="M3960 6065 c-233 -37 -472 -177 -625 -367 -166 -209 -253 -491 -227
-738 20 -192 73 -342 175 -495 91 -139 244 -271 409 -354 l92 -46 186 -337
c102 -186 190 -338 195 -338 6 0 87 155 182 344 l172 344 66 30 c253 119 460
358 549 637 21 69 46 228 46 300 -1 309 -149 615 -390 808 -232 185 -523 260
-830 212z m266 -373 c36 -26 117 -98 236 -208 26 -24 49 -44 52 -44 3 0 6 26
6 58 0 32 5 63 12 70 7 7 34 12 60 12 43 0 50 -3 59 -27 5 -14 9 -76 8 -136
l-2 -110 85 -81 c47 -45 88 -88 91 -97 9 -29 -21 -59 -59 -59 l-34 0 0 -57
c-1 -218 -83 -402 -229 -516 -279 -219 -667 -148 -855 157 -57 92 -78 166 -85
301 l-6 110 -35 3 c-70 5 -80 10 -80 41 0 33 26 64 125 148 33 28 157 133 275
234 118 101 228 194 244 207 39 30 84 28 132 -6z"/>
<path d="M4067 5300 c-115 -20 -233 -103 -292 -204 -98 -167 -59 -405 86 -529
95 -82 246 -122 362 -98 130 28 243 118 300 239 30 63 32 74 32 177 0 98 -3
116 -26 165 -40 83 -82 135 -146 178 -96 64 -211 91 -316 72z m28 -310 c3 -5
24 -10 45 -10 21 0 42 5 45 10 13 22 46 9 66 -25 17 -28 24 -33 35 -24 10 8
19 7 36 -5 28 -20 77 -20 102 -1 39 30 76 -34 76 -130 0 -73 -18 -128 -48
-144 -38 -20 -96 -23 -142 -7 -39 13 -46 13 -53 0 -24 -42 -50 -54 -118 -54
-65 0 -69 1 -97 35 l-29 35 -36 -15 c-78 -32 -163 -7 -184 55 -25 73 -13 181
24 222 14 16 18 16 44 3 32 -17 85 -20 94 -5 3 6 18 10 33 10 19 0 32 8 44 30
17 30 50 40 63 20z"/>
<path d="M2702 3027 c-7 -8 -11 -99 -11 -257 -1 -163 2 -240 9 -230 5 8 10 28
10 44 0 47 11 23 15 -35 5 -61 -1 -75 -23 -57 -14 12 -15 8 -8 -31 9 -58 44
-119 78 -137 31 -16 154 -19 191 -5 14 6 37 22 51 38 48 51 55 99 56 385 1
145 1 269 1 276 -1 7 -16 12 -40 12 -33 0 -40 -4 -43 -22 -2 -12 -9 -23 -17
-26 -11 -4 -12 2 -7 23 5 20 3 26 -6 23 -19 -7 -19 -499 0 -506 9 -3 12 34 12
162 0 91 4 166 9 166 9 0 7 -357 -3 -367 -3 -3 -6 -1 -6 5 0 23 -18 12 -39
-23 -24 -41 -58 -46 -87 -14 -18 20 -19 37 -16 299 l4 277 -24 6 c-39 11 -95
8 -106 -6z"/>
<path d="M3323 3029 c-111 -32 -163 -217 -89 -314 16 -20 36 -39 45 -43 26
-10 158 -120 165 -138 11 -30 6 -51 -20 -78 -15 -14 -35 -26 -46 -26 -29 0
-66 47 -70 88 l-3 37 -55 0 -55 0 -3 -37 c-11 -128 89 -222 217 -203 59 9 127
48 152 88 25 42 27 151 2 187 -22 34 -75 90 -85 90 -4 0 -37 23 -73 52 -85 68
-102 118 -57 171 20 22 65 22 86 -2 9 -10 19 -42 23 -70 l6 -52 56 3 56 3 -2
63 c-4 90 -51 172 -99 172 -13 0 -26 5 -29 10 -8 12 -78 12 -122 -1z"/>
<path d="M6354 3020 c-23 -12 -51 -31 -62 -43 -28 -29 -54 -132 -47 -179 9
-51 59 -128 84 -128 11 0 24 -6 28 -13 4 -6 24 -24 43 -38 73 -55 90 -76 90
-113 0 -26 -7 -40 -27 -55 -46 -37 -103 -3 -103 59 0 43 -10 50 -71 50 -33 0
-41 -4 -49 -25 -13 -34 4 -109 33 -152 59 -88 221 -94 306 -11 41 41 51 65 51
133 0 43 -6 61 -32 100 -18 26 -46 55 -63 64 -16 9 -36 23 -45 32 -8 8 -36 32
-62 53 -56 44 -71 90 -44 132 21 30 38 38 70 30 26 -6 44 -42 48 -96 l3 -35
58 -3 57 -3 0 59 c0 68 -36 152 -73 169 -85 40 -132 43 -193 13z"/>
<path d="M6712 3025 c-47 -21 -79 -93 -63 -146 17 -57 61 -89 123 -89 44 0 54
4 84 34 29 29 34 41 34 80 0 61 -21 99 -64 120 -41 19 -70 20 -114 1z m127
-39 c67 -71 24 -176 -70 -176 -77 0 -127 96 -83 159 35 50 114 59 153 17z"/>
<path d="M1660 3005 c-13 -34 -11 -644 2 -668 7 -15 20 -17 66 -15 l57 3 5
135 5 134 50 1 50 0 3 -124 c1 -71 7 -130 14 -138 14 -17 128 -18 128 0 5 142
-2 683 -9 690 -4 4 -32 7 -62 5 l-54 -3 -3 -152 -3 -151 -57 3 -57 4 -5 148
-5 148 -58 3 c-53 3 -58 1 -67 -23z"/>
<path d="M2275 3021 c-16 -6 -22 -23 -31 -87 l-11 -79 -2 58 c-1 74 -23 77
-46 7 -14 -41 -16 -85 -13 -258 3 -200 4 -210 28 -257 37 -71 75 -90 175 -90
68 0 85 4 113 23 57 42 65 69 72 257 11 305 -6 387 -86 421 -36 15 -165 18
-199 5z m126 -124 c30 -23 39 -78 39 -234 0 -172 -11 -218 -53 -228 -67 -17
-87 34 -87 225 0 144 10 200 41 231 22 22 37 24 60 6z"/>
<path d="M3711 3016 c-8 -9 -11 -127 -11 -355 l1 -341 154 0 c84 0 160 3 169
6 12 5 16 21 16 65 l0 59 -100 0 -100 0 0 85 c0 67 -3 87 -15 91 -16 7 -21 34
-6 34 5 0 12 8 14 18 3 11 5 8 6 -9 1 -34 41 -51 107 -47 l49 3 0 60 0 60 -80
5 -80 5 -3 68 c-2 48 1 69 10 72 7 2 50 6 96 8 45 2 87 8 93 14 15 15 2 106
-14 100 -7 -2 -11 -17 -9 -32 3 -25 1 -27 -12 -16 -9 8 -16 24 -16 37 0 23 -1
23 -129 23 -93 0 -133 -4 -140 -13z"/>
<path d="M4178 3018 c-15 -12 -17 -51 -18 -343 -1 -181 -2 -336 -1 -342 2 -19
105 -17 121 2 10 12 12 64 8 216 -3 115 -1 194 4 186 4 -9 22 -84 39 -167 16
-83 34 -163 40 -176 5 -14 9 -36 9 -50 0 -22 4 -24 44 -24 24 0 48 6 53 13 5
6 22 82 37 167 56 318 66 325 55 35 -4 -110 -5 -202 -2 -205 7 -7 93 -10 121
-4 l23 5 -3 347 -3 347 -80 3 c-44 1 -86 -2 -93 -6 -17 -11 -33 -79 -37 -162
-8 -141 -27 -333 -34 -353 l-8 -21 -12 23 c-12 22 -13 22 -33 5 -19 -18 -20
-18 -16 15 3 34 28 57 28 27 0 -9 6 -16 13 -16 10 0 14 16 15 53 1 52 1 52
-18 30 -25 -32 -31 -29 -30 15 0 62 -1 74 -16 167 -25 147 -37 199 -47 213 -6
7 -35 12 -76 12 -38 0 -74 -5 -83 -12z"/>
<path d="M4941 3016 c-12 -15 -19 -46 -82 -376 -23 -118 -42 -237 -43 -263
l-1 -49 55 -1 54 -1 8 39 c18 95 28 115 53 115 25 0 35 23 15 35 -5 3 -10 15
-10 26 0 19 1 19 16 4 9 -9 17 -26 18 -38 1 -16 8 -23 28 -25 30 -4 32 -8 43
-95 7 -56 31 -71 97 -61 36 6 39 9 35 33 -50 296 -111 630 -118 648 -8 21 -14
23 -83 23 -50 0 -77 -4 -85 -14z"/>
<path d="M5281 2965 l2 -65 56 0 c31 0 61 -4 68 -8 8 -5 11 -84 10 -287 l-2
-280 70 0 c69 0 70 1 68 25 -6 72 -10 405 -5 473 l5 77 68 0 69 0 0 63 0 64
-205 2 -205 2 1 -66z"/>
<path d="M5800 3010 c-7 -13 -10 -133 -8 -352 l3 -333 160 -3 c183 -3 185 -2
185 80 l0 47 -102 3 -103 3 -3 80 c-2 43 -8 85 -13 92 -11 13 -3 53 11 53 4 0
7 -8 6 -17 -2 -24 41 -43 100 -43 51 0 52 0 58 36 4 20 4 49 1 65 l-7 29 -79
0 -79 0 0 75 0 75 58 2 c31 1 71 3 87 4 17 1 36 3 43 3 17 1 12 103 -5 109 -9
2 -13 -7 -13 -28 0 -28 -2 -31 -15 -20 -9 7 -14 22 -13 34 3 20 -1 21 -129 23
-123 3 -133 1 -143 -17z"/>
</g>
</svg>
